<?xml version="1.0" encoding="UTF-8" standalone="no"?>
<svg version="1.0" viewBox="0 0 128 128" xmlns="http://www.w3.org/2000/svg" xmlns:svg="http://www.w3.org/2000/svg">
  <rect
     fill="#000"
     style="stroke:#fdffff;stroke-width:1;stroke-linejoin:round"
     width="116.87028"
     height="116.87029"
     x="5.5648589"
     y="5.5648589"
     ry="9.1501856" />
  <g>
    <rect
       style="fill:#ffffff;stroke:#fdffff;stroke-width:1;stroke-linejoin:round"
       width="9.8797712"
       height="9.8797703"
       x="40.560116"
       y="30.560116" />
    <rect
       style="fill:#ffffff;stroke:#fdffff;stroke-width:1;stroke-linejoin:round"
       width="10"
       height="10"
       x="28.566929"
       y="42.566929" />
    <rect
       style="fill:#ffffff;stroke:#fdffff;stroke-width:1;stroke-linejoin:round"
       width="10"
       height="10"
       x="28.566931"
       y="54.566929" />
    <rect
       style="fill:#ffffff;stroke:#fdffff;stroke-width:1;stroke-linejoin:round"
       width="10"
       height="10"
       x="40.566933"
       y="54.566929" />
    <rect
       style="fill:#ffffff;stroke:#fdffff;stroke-width:1;stroke-linejoin:round"
       width="10"
       height="10"
       x="52.566929"
       y="54.566929" />
  </g>
  <g transform="matrix(-0.99876153,0,0,1.0000203,126.85312,33.388876)">
    <rect
       style="fill:#ffffff;stroke:#fdffff;stroke-width:1;stroke-linejoin:round"
       width="9.8797712"
       height="9.8797703"
       x="40.560116"
       y="30.560116" />
    <rect
       style="fill:#ffffff;stroke:#fdffff;stroke-width:1;stroke-linejoin:round"
       width="10"
       height="10"
       x="28.566929"
       y="42.566929" />
    <rect
       style="fill:#ffffff;stroke:#fdffff;stroke-width:1;stroke-linejoin:round"
       width="10"
       height="10"
       x="28.566931"
       y="54.566929" />
    <rect
       style="fill:#ffffff;stroke:#fdffff;stroke-width:1;stroke-linejoin:round"
       width="10"
       height="10"
       x="40.566933"
       y="54.566929" />
    <rect
       style="fill:#ffffff;stroke:#fdffff;stroke-width:1;stroke-linejoin:round"
       width="10"
       height="10"
       x="52.566929"
       y="54.566929" />
  </g>
  <path fill="#fff" d="m 40.951237,16.787148 h 5.664062 v 7.402343 q -1.376953,0.449219 -2.597656,0.625 -1.210938,0.185547 -2.480469,0.185547 -3.232422,0 -4.941406,-1.894531 -1.699219,-1.904297 -1.699219,-5.458984 0,-3.457032 1.972656,-5.390625 1.982422,-1.933594 5.488282,-1.933594 2.197265,0 4.238281,0.878906 l -1.005859,2.421875 q -1.5625,-0.78125 -3.251954,-0.78125 -1.96289,0 -3.144531,1.318359 -1.18164,1.31836 -1.18164,3.544922 0,2.324219 0.947265,3.554688 0.957031,1.220703 2.773438,1.220703 0.947265,0 1.923828,-0.195313 v -2.978515 h -2.705078 z m 15.761718,8.017578 -0.576171,-1.484375 h -0.07813 q -0.751954,0.947265 -1.552735,1.318359 -0.791015,0.361328 -2.070312,0.361328 -1.572266,0 -2.480469,-0.898437 -0.898438,-0.898438 -0.898438,-2.558594 0,-1.738281 1.210938,-2.558594 1.220703,-0.830078 3.671875,-0.917969 l 1.894531,-0.05859 v -0.478516 q 0,-1.660156 -1.699219,-1.660156 -1.308593,0 -3.076171,0.791015 L 50.07233,14.648476 q 1.884766,-0.986328 4.179688,-0.986328 2.197266,0 3.369141,0.957031 1.171875,0.957031 1.171875,2.910156 v 7.275391 z m -0.878906,-5.058594 -1.152344,0.03906 q -1.298828,0.03906 -1.933593,0.46875 -0.634766,0.429688 -0.634766,1.308594 0,1.259766 1.445313,1.259766 1.035156,0 1.65039,-0.595703 0.625,-0.595703 0.625,-1.582032 z m 15.800781,5.058594 h -2.978515 v -6.376953 q 0,-1.181641 -0.400391,-1.767579 -0.390625,-0.595703 -1.240234,-0.595703 -1.142578,0 -1.660156,0.839844 -0.517579,0.839844 -0.517579,2.763672 v 5.136719 H 61.85944 V 13.886757 h 2.27539 l 0.400391,1.396484 h 0.166016 q 0.439453,-0.751953 1.269531,-1.171875 0.830078,-0.429687 1.904297,-0.429687 2.451172,0 3.320312,1.601562 h 0.263672 q 0.439453,-0.761718 1.289063,-1.18164 0.859375,-0.419922 1.933593,-0.419922 1.855469,0 2.802735,0.957031 0.957031,0.947266 0.957031,3.046875 v 7.119141 H 75.45319 v -6.376953 q 0,-1.181641 -0.400391,-1.767579 -0.390625,-0.595703 -1.240234,-0.595703 -1.09375,0 -1.640625,0.78125 -0.53711,0.78125 -0.53711,2.480469 z m 14.384766,-9.003907 q -0.947266,0 -1.484375,0.605469 -0.537109,0.595703 -0.615234,1.699219 h 4.179687 q -0.01953,-1.103516 -0.576172,-1.699219 -0.55664,-0.605469 -1.503906,-0.605469 z m 0.419922,9.199219 q -2.636719,0 -4.121094,-1.455078 -1.484375,-1.455078 -1.484375,-4.121094 0,-2.74414 1.367188,-4.238281 1.376953,-1.503906 3.798828,-1.503906 2.314453,0 3.603515,1.318359 1.289063,1.31836 1.289063,3.642578 v 1.445313 h -7.041016 q 0.04883,1.269531 0.751953,1.982422 0.703125,0.71289 1.972657,0.71289 0.986328,0 1.865234,-0.205078 0.878906,-0.205078 1.835938,-0.654297 v 2.304688 q -0.78125,0.390625 -1.669922,0.576172 -0.888672,0.195312 -2.167969,0.195312 z" />
  <path fill="#fff" d="m 46.285416,87.871437 q 0,3.544922 -1.757813,5.449219 -1.757812,1.904297 -5.039062,1.904297 -3.28125,0 -5.039063,-1.904297 -1.757812,-1.904297 -1.757812,-5.46875 0,-3.564453 1.757812,-5.439453 1.767578,-1.884766 5.058594,-1.884766 3.291016,0 5.029297,1.894531 1.748047,1.894532 1.748047,5.449219 z m -10.419922,0 q 0,2.392578 0.908203,3.603516 0.908203,1.210937 2.714844,1.210937 3.623047,0 3.623047,-4.814453 0,-4.824219 -3.603516,-4.824219 -1.806641,0 -2.724609,1.220703 -0.917969,1.210938 -0.917969,3.603516 z M 55.045181,86.348 h -2.578125 v 8.68164 H 49.488541 V 86.348 h -1.640625 v -1.435547 l 1.640625,-0.800782 V 83.31089 q 0,-1.865234 0.917968,-2.724609 0.917969,-0.859375 2.939454,-0.859375 1.542968,0 2.74414,0.458984 l -0.761719,2.1875 q -0.898437,-0.283203 -1.660156,-0.283203 -0.634765,0 -0.917969,0.380859 -0.283203,0.371094 -0.283203,0.957032 v 0.683593 h 2.578125 z" />
  <path fill="#fff" d="m 62.210148,119.61388 v -14.27735 h 3.027344 v 11.77735 h 5.791015 v 2.5 z m 10.9375,-13.74024 q 0,-1.45508 1.621094,-1.45508 1.621093,0 1.621093,1.45508 0,0.69336 -0.410156,1.08399 -0.400391,0.38086 -1.210937,0.38086 -1.621094,0 -1.621094,-1.46485 z m 3.105469,13.74024 h -2.978516 v -10.91797 h 2.978516 z m 9.160156,-8.68164 h -2.578125 v 8.68164 h -2.978516 v -8.68164 h -1.640625 v -1.43555 l 1.640625,-0.80078 v -0.80078 q 0,-1.86524 0.917969,-2.72461 0.917969,-0.85938 2.939453,-0.85938 1.542969,0 2.744141,0.45899 l -0.761719,2.1875 q -0.898438,-0.28321 -1.660156,-0.28321 -0.634766,0 -0.917969,0.38086 -0.283203,0.3711 -0.283203,0.95703 v 0.6836 h 2.578125 z m 6.230469,-0.32227 q -0.947266,0 -1.484375,0.60547 -0.53711,0.5957 -0.615235,1.69922 h 4.179688 q -0.01953,-1.10352 -0.576172,-1.69922 -0.556641,-0.60547 -1.503906,-0.60547 z m 0.419921,9.19922 q -2.636718,0 -4.121093,-1.45508 -1.484375,-1.45508 -1.484375,-4.12109 0,-2.74414 1.367187,-4.23828 1.376953,-1.50391 3.798828,-1.50391 2.314453,0 3.603516,1.31836 1.289062,1.31836 1.289062,3.64258 v 1.44531 h -7.041015 q 0.04883,1.26953 0.751953,1.98242 0.703125,0.71289 1.972656,0.71289 0.986328,0 1.865235,-0.20508 0.878906,-0.20507 1.835937,-0.65429 v 2.30468 q -0.78125,0.39063 -1.669922,0.57618 -0.888672,0.19531 -2.167969,0.19531 z" />
</svg>
